<mxfile host="app.diagrams.net" modified="2021-09-12T11:36:37.395Z" agent="5.0 (Windows NT 10.0; Win64; x64) AppleWebKit/537.36 (KHTML, like Gecko) Chrome/93.0.4577.63 Safari/537.36 Edg/93.0.961.38" etag="HIJuNU0SvLzY1rln1im6" version="15.1.4" type="github">
  <diagram id="dfvJW5Lfn74AIO5DTFk8" name="Page-1">
    <mxGraphModel dx="1038" dy="588" grid="1" gridSize="10" guides="1" tooltips="1" connect="1" arrows="1" fold="1" page="1" pageScale="1" pageWidth="827" pageHeight="1169" math="0" shadow="0">
      <root>
        <mxCell id="0" />
        <mxCell id="1" parent="0" />
        <mxCell id="R5k3EV1D0ts2NCPpDUfJ-3" style="edgeStyle=orthogonalEdgeStyle;rounded=0;orthogonalLoop=1;jettySize=auto;html=1;" parent="1" source="R5k3EV1D0ts2NCPpDUfJ-1" target="R5k3EV1D0ts2NCPpDUfJ-2" edge="1">
          <mxGeometry relative="1" as="geometry" />
        </mxCell>
        <mxCell id="R5k3EV1D0ts2NCPpDUfJ-1" value="로그인" style="ellipse;whiteSpace=wrap;html=1;" parent="1" vertex="1">
          <mxGeometry x="50" y="40" width="70" height="40" as="geometry" />
        </mxCell>
        <mxCell id="R5k3EV1D0ts2NCPpDUfJ-5" style="edgeStyle=orthogonalEdgeStyle;rounded=0;orthogonalLoop=1;jettySize=auto;html=1;" parent="1" source="R5k3EV1D0ts2NCPpDUfJ-2" edge="1">
          <mxGeometry relative="1" as="geometry">
            <mxPoint x="310" y="60" as="targetPoint" />
          </mxGeometry>
        </mxCell>
        <mxCell id="R5k3EV1D0ts2NCPpDUfJ-2" value="추가정보등록" style="rounded=0;whiteSpace=wrap;html=1;" parent="1" vertex="1">
          <mxGeometry x="170" y="40" width="100" height="40" as="geometry" />
        </mxCell>
        <mxCell id="R5k3EV1D0ts2NCPpDUfJ-8" style="edgeStyle=orthogonalEdgeStyle;rounded=0;orthogonalLoop=1;jettySize=auto;html=1;entryX=0;entryY=0.5;entryDx=0;entryDy=0;" parent="1" source="R5k3EV1D0ts2NCPpDUfJ-4" target="R5k3EV1D0ts2NCPpDUfJ-7" edge="1">
          <mxGeometry relative="1" as="geometry" />
        </mxCell>
        <mxCell id="R5k3EV1D0ts2NCPpDUfJ-9" style="edgeStyle=orthogonalEdgeStyle;rounded=0;orthogonalLoop=1;jettySize=auto;html=1;exitX=0.5;exitY=1;exitDx=0;exitDy=0;entryX=0.5;entryY=0;entryDx=0;entryDy=0;" parent="1" source="R5k3EV1D0ts2NCPpDUfJ-4" target="R5k3EV1D0ts2NCPpDUfJ-6" edge="1">
          <mxGeometry relative="1" as="geometry" />
        </mxCell>
        <mxCell id="R5k3EV1D0ts2NCPpDUfJ-4" value="사용자선택" style="rounded=0;whiteSpace=wrap;html=1;" parent="1" vertex="1">
          <mxGeometry x="314" y="40" width="100" height="40" as="geometry" />
        </mxCell>
        <mxCell id="Apj9eic0G-zYuKpP5c-M-3" style="edgeStyle=orthogonalEdgeStyle;rounded=0;orthogonalLoop=1;jettySize=auto;html=1;entryX=0.5;entryY=0;entryDx=0;entryDy=0;" edge="1" parent="1" source="R5k3EV1D0ts2NCPpDUfJ-6" target="Apj9eic0G-zYuKpP5c-M-1">
          <mxGeometry relative="1" as="geometry" />
        </mxCell>
        <mxCell id="R5k3EV1D0ts2NCPpDUfJ-6" value="투자정보등록&lt;br&gt;(투자사)" style="rounded=0;whiteSpace=wrap;html=1;" parent="1" vertex="1">
          <mxGeometry x="314" y="120" width="100" height="40" as="geometry" />
        </mxCell>
        <mxCell id="Apj9eic0G-zYuKpP5c-M-4" style="edgeStyle=orthogonalEdgeStyle;rounded=0;orthogonalLoop=1;jettySize=auto;html=1;entryX=0;entryY=0.5;entryDx=0;entryDy=0;" edge="1" parent="1" source="R5k3EV1D0ts2NCPpDUfJ-7" target="Apj9eic0G-zYuKpP5c-M-2">
          <mxGeometry relative="1" as="geometry" />
        </mxCell>
        <mxCell id="R5k3EV1D0ts2NCPpDUfJ-7" value="투자정보등록&lt;br&gt;(기업)" style="rounded=0;whiteSpace=wrap;html=1;" parent="1" vertex="1">
          <mxGeometry x="460" y="40" width="100" height="40" as="geometry" />
        </mxCell>
        <mxCell id="R5k3EV1D0ts2NCPpDUfJ-10" value="" style="shape=image;verticalLabelPosition=bottom;labelBackgroundColor=#ffffff;verticalAlign=top;aspect=fixed;imageAspect=0;image=data:image/png,iVBORw0KGgoAAAANSUhEUgAAADAAAAAmCAYAAACCjRgBAAAHOUlEQVRYCdWZZ2gVWxCAY42dxCgWrFExVhSN2HtH8I/5oUSDiopgB1ETxfJDRey9KxqTWGPBiomgInZBVOwFezf2PvIN7yx7dzfee303z7yBye7dc86c6TPnJEz+5xAWLP+fP3+Ws2fPyunTp+Xo0aMyc+ZMGTBggCQkJCj269dPwL59+yqa32acubNmzZJjx44pjXPnzsnXr1+DZcOa71eA27dvy/bt22XUqFHSrl07qVmzpoSFhYUUa9WqpbTHjBmje927d89i0N+LpwBv376V1atXK9GiRYu6mC1RooSUK1dONY5go0ePVpw4caJaZNWqVZKamqq4cuVKmTFjhiQlJVnzWINFoAEtp0KKFy8uXbp0kXXr1snHjx9/K4NLgB07dkjVqlUtovny5ZO6devKlClTZN68eXLjxg15+fKlZGVl/ZZwIIPQgNbNmzeV9tSpU6VOnTqSP39+a38svnv37mzJ+QiApow2YHru3Lly+fLlbBfn1MCVK1dkzpw5Urt2bYufZcuWeW5nCfD06VPBdAUKFFA3IFj/Nnz69EkmTZokeEHZsmXl3bt3LpYsAa5du6bSli9fPiTu4drpDz88fPhQSpUqJYUKFZJnz565qFgCXL9+XcLDw1UITLd27Vq/AeSiFsIPxMfSpUulWrVqylNUVJQ8f/7ctYOnACYOYmJiZMSIEZKeni4vXrxwLQ71h8ePH+tegwcPlujoaMv/8+TJIyVLlvQvABNbtmyphcZIboQpXbq0IBApcOHChbJkyRI5c+aMvHnzxgfxWyeQCp3zTpw4IYsWLVJaQ4cOVdqRkZEW0+xLfZg/f740bNhQvcOvBVjUuXNn3f/Dhw+qDSxQo0YNDSQjjP1ZpEgRYWOD1atXl+bNm0vHjh0VmzVrpto04zwLFy7sw6ihhwuz19ixY2Xfvn1ilBEbG6v7ByRAhw4dnAqUnz9/Cqlt69atsmLFCmWsTZs20qJFCylTpownM4Ypr2eFChXU0tDo2rWrFixoUw/YywmNGjXS2hCQAFTAYACiJ0+eDApxp2AgYAvkzZtX0A7azi2AcgjgYsWK+Q9ik0YpaOPGjRNS69+CS5cuybBhw6RgwYLqogGnUTKR8VuqMsFItjh06JDkZHV+//69Bi6tNl2v4YFnUGm0bdu2kpaWppnEToR3cjPNVv/+/WXx4sWKFLyLFy9q9ab4+EP6fzpds75Pnz5Ks1KlSj5M487t27cXmkv6MpQZUBB36tRJvYZscP78ea0JELJ3qE7B+E1bTIrE1E7Ehxnzap3ttFBQt27ddE9cyACpnXn0a07wqcRMwmW8gFPTkSNHZMuWLdqlQrR169bSqlUradCggfYqdma83jlbkBJZw9ru3burJaB5/Phxr2312+vXr2XXrl1CbXKCSwC0/Sdw69YtwT3IGlRZO/INa969e9cvaWhs3LhR1q9fLxs2bJDMzMzfrvERgIMEVZIY+K/h8OHD0rRpU584MFbEwjt37vRkyUcAWlaziODKyMiQL1++eC4M5cdp06bpvgQq52I0f+rUKdm8ebNwSouIiNDx+Ph41wWAjwAQoPe29yr16tWTIUOGyN69e+XChQuh5FtpzZ49W5nr2bOn3Llzx5M+2QceUC5PO/gIwAQC6+rVqzJo0CBLcmMVnpwVEIpx+nWDKSkp2ssQcLQKJp3yG3zw4IEGIvONO9y/f1/TI0Ht1QPZGeW9V69eKsTBgwetIZcA9mYOybdt2yaTJ0+W+vXrS8WKFZWAXSDnO9UcC9Klgrgl1dReIEeOHKkMGK06Lfvjxw/p3bu3DBw40EcwzgukYgRmDuASILs0ymSTSgnyTZs2aann/ADSmTZp0kR7d84NnCdAenpSJ2O02RRKbja+f/8uVapU0THlxPYHa5ByaWmcEBcXp0p89eqVDlkCmDMxZfzfAszRdoDZuQbVG+uNHz/e2o5TH3dB3I7QvCEENyOkVHOgp+1mHWkZsATAPJiaQOZiKqeBq0UYmTBhgrUV2cfpkuY3N4TAgQMHdM6ePXv0tyUAmiIQzQLcguMclskJ4LYBDXP+NYCW0TZ3QsYC9Ez79++3fJ7LNXg014+WAIYIQeu8/ySwyc8QQnO4SCigcePG2iOZgLTTJPgRwgnEE4FsXMolAAtobZOTkzVt2WuCsU7lypW1QyQwhw8fLtyaLV++PCAkA5EAANZA0+vWLTExUdasWeMTQ9Qi5rOnAU8BzCDPJ0+e6Fl4+vTpeuFK20u3aYT5kyeZiYz27ds3rSsoyQSlfW/7OzHAZTA3dI8ePbKG/ApgzfznhU25LcCdiBmDaJHcTar0Qv5PwDmA+dxcmxaFGkCrQAIh+3DZawcEJS5MO8FVvx2CFsC+OFTvdKDc/WBNGOUqpkePHlqwqBV85zyCCzkhVwgAUwQymuZARTXHIjwJ2gULFmhcOpnnd64RwM4c/2AxaP/u9Z4rBfBiNLtvvwA4uY2TXQ3xdAAAAABJRU5ErkJggg==;" parent="1" vertex="1">
          <mxGeometry x="196.06" y="90" width="37.89" height="30" as="geometry" />
        </mxCell>
        <mxCell id="R5k3EV1D0ts2NCPpDUfJ-11" value="&lt;font style=&quot;font-size: 9px&quot;&gt;*입력정보&lt;br&gt;&lt;span style=&quot;font-family: &amp;#34;맑은 고딕&amp;#34;&quot;&gt;기업/투자사명&lt;br&gt;사업자등록번호&lt;br&gt;로고, 주소, 대표자명&lt;br&gt;회사설립일, 직원수&lt;br&gt;국가, 홈페이지,&lt;br&gt;회사소개서,&lt;br&gt;회사 한줄소개&lt;br&gt;기업소개 이미지&lt;br&gt;&lt;br&gt;&lt;br&gt;&lt;/span&gt;&lt;span style=&quot;font-family: &amp;#34;맑은 고딕&amp;#34;&quot;&gt;&lt;br&gt;&lt;/span&gt;&lt;/font&gt;" style="text;html=1;resizable=0;autosize=1;align=left;verticalAlign=middle;points=[];fillColor=none;strokeColor=none;rounded=0;" parent="1" vertex="1">
          <mxGeometry x="160" y="110" width="110" height="190" as="geometry" />
        </mxCell>
        <mxCell id="R5k3EV1D0ts2NCPpDUfJ-12" value="" style="shape=image;verticalLabelPosition=bottom;labelBackgroundColor=#ffffff;verticalAlign=top;aspect=fixed;imageAspect=0;image=data:image/png,iVBORw0KGgoAAAANSUhEUgAAADAAAAAmCAYAAACCjRgBAAAHOUlEQVRYCdWZZ2gVWxCAY42dxCgWrFExVhSN2HtH8I/5oUSDiopgB1ETxfJDRey9KxqTWGPBiomgInZBVOwFezf2PvIN7yx7dzfee303z7yBye7dc86c6TPnJEz+5xAWLP+fP3+Ws2fPyunTp+Xo0aMyc+ZMGTBggCQkJCj269dPwL59+yqa32acubNmzZJjx44pjXPnzsnXr1+DZcOa71eA27dvy/bt22XUqFHSrl07qVmzpoSFhYUUa9WqpbTHjBmje927d89i0N+LpwBv376V1atXK9GiRYu6mC1RooSUK1dONY5go0ePVpw4caJaZNWqVZKamqq4cuVKmTFjhiQlJVnzWINFoAEtp0KKFy8uXbp0kXXr1snHjx9/K4NLgB07dkjVqlUtovny5ZO6devKlClTZN68eXLjxg15+fKlZGVl/ZZwIIPQgNbNmzeV9tSpU6VOnTqSP39+a38svnv37mzJ+QiApow2YHru3Lly+fLlbBfn1MCVK1dkzpw5Urt2bYufZcuWeW5nCfD06VPBdAUKFFA3IFj/Nnz69EkmTZokeEHZsmXl3bt3LpYsAa5du6bSli9fPiTu4drpDz88fPhQSpUqJYUKFZJnz565qFgCXL9+XcLDw1UITLd27Vq/AeSiFsIPxMfSpUulWrVqylNUVJQ8f/7ctYOnACYOYmJiZMSIEZKeni4vXrxwLQ71h8ePH+tegwcPlujoaMv/8+TJIyVLlvQvABNbtmyphcZIboQpXbq0IBApcOHChbJkyRI5c+aMvHnzxgfxWyeQCp3zTpw4IYsWLVJaQ4cOVdqRkZEW0+xLfZg/f740bNhQvcOvBVjUuXNn3f/Dhw+qDSxQo0YNDSQjjP1ZpEgRYWOD1atXl+bNm0vHjh0VmzVrpto04zwLFy7sw6ihhwuz19ixY2Xfvn1ilBEbG6v7ByRAhw4dnAqUnz9/Cqlt69atsmLFCmWsTZs20qJFCylTpownM4Ypr2eFChXU0tDo2rWrFixoUw/YywmNGjXS2hCQAFTAYACiJ0+eDApxp2AgYAvkzZtX0A7azi2AcgjgYsWK+Q9ik0YpaOPGjRNS69+CS5cuybBhw6RgwYLqogGnUTKR8VuqMsFItjh06JDkZHV+//69Bi6tNl2v4YFnUGm0bdu2kpaWppnEToR3cjPNVv/+/WXx4sWKFLyLFy9q9ab4+EP6fzpds75Pnz5Ks1KlSj5M487t27cXmkv6MpQZUBB36tRJvYZscP78ea0JELJ3qE7B+E1bTIrE1E7Ehxnzap3ttFBQt27ddE9cyACpnXn0a07wqcRMwmW8gFPTkSNHZMuWLdqlQrR169bSqlUradCggfYqdma83jlbkBJZw9ru3burJaB5/Phxr2312+vXr2XXrl1CbXKCSwC0/Sdw69YtwT3IGlRZO/INa969e9cvaWhs3LhR1q9fLxs2bJDMzMzfrvERgIMEVZIY+K/h8OHD0rRpU584MFbEwjt37vRkyUcAWlaziODKyMiQL1++eC4M5cdp06bpvgQq52I0f+rUKdm8ebNwSouIiNDx+Ph41wWAjwAQoPe29yr16tWTIUOGyN69e+XChQuh5FtpzZ49W5nr2bOn3Llzx5M+2QceUC5PO/gIwAQC6+rVqzJo0CBLcmMVnpwVEIpx+nWDKSkp2ssQcLQKJp3yG3zw4IEGIvONO9y/f1/TI0Ht1QPZGeW9V69eKsTBgwetIZcA9mYOybdt2yaTJ0+W+vXrS8WKFZWAXSDnO9UcC9Klgrgl1dReIEeOHKkMGK06Lfvjxw/p3bu3DBw40EcwzgukYgRmDuASILs0ymSTSgnyTZs2aann/ADSmTZp0kR7d84NnCdAenpSJ2O02RRKbja+f/8uVapU0THlxPYHa5ByaWmcEBcXp0p89eqVDlkCmDMxZfzfAszRdoDZuQbVG+uNHz/e2o5TH3dB3I7QvCEENyOkVHOgp+1mHWkZsATAPJiaQOZiKqeBq0UYmTBhgrUV2cfpkuY3N4TAgQMHdM6ePXv0tyUAmiIQzQLcguMclskJ4LYBDXP+NYCW0TZ3QsYC9Ez79++3fJ7LNXg014+WAIYIQeu8/ySwyc8QQnO4SCigcePG2iOZgLTTJPgRwgnEE4FsXMolAAtobZOTkzVt2WuCsU7lypW1QyQwhw8fLtyaLV++PCAkA5EAANZA0+vWLTExUdasWeMTQ9Qi5rOnAU8BzCDPJ0+e6Fl4+vTpeuFK20u3aYT5kyeZiYz27ds3rSsoyQSlfW/7OzHAZTA3dI8ePbKG/ApgzfznhU25LcCdiBmDaJHcTar0Qv5PwDmA+dxcmxaFGkCrQAIh+3DZawcEJS5MO8FVvx2CFsC+OFTvdKDc/WBNGOUqpkePHlqwqBV85zyCCzkhVwgAUwQymuZARTXHIjwJ2gULFmhcOpnnd64RwM4c/2AxaP/u9Z4rBfBiNLtvvwA4uY2TXQ3xdAAAAABJRU5ErkJggg==;" parent="1" vertex="1">
          <mxGeometry x="422.11" y="130" width="37.89" height="30" as="geometry" />
        </mxCell>
        <mxCell id="R5k3EV1D0ts2NCPpDUfJ-13" value="" style="shape=image;verticalLabelPosition=bottom;labelBackgroundColor=#ffffff;verticalAlign=top;aspect=fixed;imageAspect=0;image=data:image/png,iVBORw0KGgoAAAANSUhEUgAAADAAAAAmCAYAAACCjRgBAAAHOUlEQVRYCdWZZ2gVWxCAY42dxCgWrFExVhSN2HtH8I/5oUSDiopgB1ETxfJDRey9KxqTWGPBiomgInZBVOwFezf2PvIN7yx7dzfee303z7yBye7dc86c6TPnJEz+5xAWLP+fP3+Ws2fPyunTp+Xo0aMyc+ZMGTBggCQkJCj269dPwL59+yqa32acubNmzZJjx44pjXPnzsnXr1+DZcOa71eA27dvy/bt22XUqFHSrl07qVmzpoSFhYUUa9WqpbTHjBmje927d89i0N+LpwBv376V1atXK9GiRYu6mC1RooSUK1dONY5go0ePVpw4caJaZNWqVZKamqq4cuVKmTFjhiQlJVnzWINFoAEtp0KKFy8uXbp0kXXr1snHjx9/K4NLgB07dkjVqlUtovny5ZO6devKlClTZN68eXLjxg15+fKlZGVl/ZZwIIPQgNbNmzeV9tSpU6VOnTqSP39+a38svnv37mzJ+QiApow2YHru3Lly+fLlbBfn1MCVK1dkzpw5Urt2bYufZcuWeW5nCfD06VPBdAUKFFA3IFj/Nnz69EkmTZokeEHZsmXl3bt3LpYsAa5du6bSli9fPiTu4drpDz88fPhQSpUqJYUKFZJnz565qFgCXL9+XcLDw1UITLd27Vq/AeSiFsIPxMfSpUulWrVqylNUVJQ8f/7ctYOnACYOYmJiZMSIEZKeni4vXrxwLQ71h8ePH+tegwcPlujoaMv/8+TJIyVLlvQvABNbtmyphcZIboQpXbq0IBApcOHChbJkyRI5c+aMvHnzxgfxWyeQCp3zTpw4IYsWLVJaQ4cOVdqRkZEW0+xLfZg/f740bNhQvcOvBVjUuXNn3f/Dhw+qDSxQo0YNDSQjjP1ZpEgRYWOD1atXl+bNm0vHjh0VmzVrpto04zwLFy7sw6ihhwuz19ixY2Xfvn1ilBEbG6v7ByRAhw4dnAqUnz9/Cqlt69atsmLFCmWsTZs20qJFCylTpownM4Ypr2eFChXU0tDo2rWrFixoUw/YywmNGjXS2hCQAFTAYACiJ0+eDApxp2AgYAvkzZtX0A7azi2AcgjgYsWK+Q9ik0YpaOPGjRNS69+CS5cuybBhw6RgwYLqogGnUTKR8VuqMsFItjh06JDkZHV+//69Bi6tNl2v4YFnUGm0bdu2kpaWppnEToR3cjPNVv/+/WXx4sWKFLyLFy9q9ab4+EP6fzpds75Pnz5Ks1KlSj5M487t27cXmkv6MpQZUBB36tRJvYZscP78ea0JELJ3qE7B+E1bTIrE1E7Ehxnzap3ttFBQt27ddE9cyACpnXn0a07wqcRMwmW8gFPTkSNHZMuWLdqlQrR169bSqlUradCggfYqdma83jlbkBJZw9ru3burJaB5/Phxr2312+vXr2XXrl1CbXKCSwC0/Sdw69YtwT3IGlRZO/INa969e9cvaWhs3LhR1q9fLxs2bJDMzMzfrvERgIMEVZIY+K/h8OHD0rRpU584MFbEwjt37vRkyUcAWlaziODKyMiQL1++eC4M5cdp06bpvgQq52I0f+rUKdm8ebNwSouIiNDx+Ph41wWAjwAQoPe29yr16tWTIUOGyN69e+XChQuh5FtpzZ49W5nr2bOn3Llzx5M+2QceUC5PO/gIwAQC6+rVqzJo0CBLcmMVnpwVEIpx+nWDKSkp2ssQcLQKJp3yG3zw4IEGIvONO9y/f1/TI0Ht1QPZGeW9V69eKsTBgwetIZcA9mYOybdt2yaTJ0+W+vXrS8WKFZWAXSDnO9UcC9Klgrgl1dReIEeOHKkMGK06Lfvjxw/p3bu3DBw40EcwzgukYgRmDuASILs0ymSTSgnyTZs2aann/ADSmTZp0kR7d84NnCdAenpSJ2O02RRKbja+f/8uVapU0THlxPYHa5ByaWmcEBcXp0p89eqVDlkCmDMxZfzfAszRdoDZuQbVG+uNHz/e2o5TH3dB3I7QvCEENyOkVHOgp+1mHWkZsATAPJiaQOZiKqeBq0UYmTBhgrUV2cfpkuY3N4TAgQMHdM6ePXv0tyUAmiIQzQLcguMclskJ4LYBDXP+NYCW0TZ3QsYC9Ez79++3fJ7LNXg014+WAIYIQeu8/ySwyc8QQnO4SCigcePG2iOZgLTTJPgRwgnEE4FsXMolAAtobZOTkzVt2WuCsU7lypW1QyQwhw8fLtyaLV++PCAkA5EAANZA0+vWLTExUdasWeMTQ9Qi5rOnAU8BzCDPJ0+e6Fl4+vTpeuFK20u3aYT5kyeZiYz27ds3rSsoyQSlfW/7OzHAZTA3dI8ePbKG/ApgzfznhU25LcCdiBmDaJHcTar0Qv5PwDmA+dxcmxaFGkCrQAIh+3DZawcEJS5MO8FVvx2CFsC+OFTvdKDc/WBNGOUqpkePHlqwqBV85zyCCzkhVwgAUwQymuZARTXHIjwJ2gULFmhcOpnnd64RwM4c/2AxaP/u9Z4rBfBiNLtvvwA4uY2TXQ3xdAAAAABJRU5ErkJggg==;" parent="1" vertex="1">
          <mxGeometry x="460" y="90" width="37.89" height="30" as="geometry" />
        </mxCell>
        <mxCell id="R5k3EV1D0ts2NCPpDUfJ-14" value="&lt;font style=&quot;font-size: 10px&quot;&gt;*입력정보&lt;br&gt;&lt;p style=&quot;margin-top: 0pt ; margin-bottom: 0pt ; margin-left: 0in ; direction: ltr ; unicode-bidi: embed&quot;&gt;&lt;span style=&quot;font-family: &amp;#34;맑은 고딕&amp;#34;&quot;&gt;투자사종류&lt;/span&gt;&lt;/p&gt;&lt;span style=&quot;font-family: &amp;#34;맑은 고딕&amp;#34;&quot;&gt;포트폴리오&lt;/span&gt;&lt;span style=&quot;font-family: &amp;#34;맑은 고딕&amp;#34;&quot;&gt;(&lt;/span&gt;&lt;span style=&quot;font-family: &amp;#34;맑은 고딕&amp;#34;&quot;&gt;기업명&lt;/span&gt;&lt;span style=&quot;font-family: &amp;#34;맑은 고딕&amp;#34;&quot;&gt;, &lt;/span&gt;&lt;span style=&quot;font-family: &amp;#34;맑은 고딕&amp;#34;&quot;&gt;비즈니스분야&lt;/span&gt;&lt;span style=&quot;font-family: &amp;#34;맑은 고딕&amp;#34;&quot;&gt;, &lt;/span&gt;&lt;span style=&quot;font-family: &amp;#34;맑은 고딕&amp;#34;&quot;&gt;활용기술&lt;/span&gt;&lt;span style=&quot;font-family: &amp;#34;맑은 고딕&amp;#34;&quot;&gt;, &lt;/span&gt;&lt;span style=&quot;font-family: &amp;#34;맑은 고딕&amp;#34;&quot;&gt;투자년월&lt;/span&gt;&lt;span style=&quot;font-family: &amp;#34;맑은 고딕&amp;#34;&quot;&gt;, &lt;/span&gt;&lt;span style=&quot;font-family: &amp;#34;맑은 고딕&amp;#34;&quot;&gt;투자단계&lt;/span&gt;&lt;span style=&quot;font-family: &amp;#34;맑은 고딕&amp;#34;&quot;&gt;, &lt;/span&gt;&lt;span style=&quot;font-family: &amp;#34;맑은 고딕&amp;#34;&quot;&gt;투자금액&lt;/span&gt;&lt;span style=&quot;font-family: &amp;#34;맑은 고딕&amp;#34;&quot;&gt;)&lt;/span&gt;&lt;br&gt;&lt;span style=&quot;font-family: &amp;#34;맑은 고딕&amp;#34;&quot;&gt;관심분야&lt;/span&gt;&lt;span style=&quot;font-family: &amp;#34;맑은 고딕&amp;#34;&quot;&gt;, &lt;/span&gt;&lt;span style=&quot;font-family: &amp;#34;맑은 고딕&amp;#34;&quot;&gt;관심기술&lt;/span&gt;&lt;span style=&quot;font-family: &amp;#34;맑은 고딕&amp;#34;&quot;&gt;, &lt;/span&gt;&lt;span style=&quot;font-family: &amp;#34;맑은 고딕&amp;#34;&quot;&gt;관심투자단계&lt;/span&gt;&lt;br&gt;&lt;span style=&quot;font-family: &amp;#34;맑은 고딕&amp;#34;&quot;&gt;투자검토제안거부&amp;nbsp;&lt;/span&gt;&lt;span style=&quot;font-family: &amp;#34;맑은 고딕&amp;#34;&quot;&gt;토글&lt;/span&gt;&lt;span style=&quot;font-family: &amp;#34;맑은 고딕&amp;#34;&quot;&gt;&lt;br&gt;&lt;/span&gt;&lt;span style=&quot;font-family: &amp;#34;맑은 고딕&amp;#34;&quot;&gt;&lt;br&gt;&lt;br&gt;&lt;/span&gt;&lt;span style=&quot;font-family: &amp;#34;맑은 고딕&amp;#34;&quot;&gt;&lt;br&gt;&lt;/span&gt;&lt;/font&gt;" style="text;html=1;resizable=0;autosize=1;align=left;verticalAlign=middle;points=[];fillColor=none;strokeColor=none;rounded=0;" parent="1" vertex="1">
          <mxGeometry x="414" y="150" width="350" height="130" as="geometry" />
        </mxCell>
        <mxCell id="R5k3EV1D0ts2NCPpDUfJ-15" value="&lt;font style=&quot;font-size: 10px&quot;&gt;*입력정보&lt;br&gt;&lt;p style=&quot;line-height: normal ; margin: 0pt 0in ; text-indent: 0in ; direction: ltr ; unicode-bidi: embed&quot;&gt;&lt;span style=&quot;font-family: &amp;#34;맑은 고딕&amp;#34;&quot;&gt;비즈니스분야&lt;/span&gt;&lt;span style=&quot;font-family: &amp;#34;맑은 고딕&amp;#34;&quot;&gt;, &lt;/span&gt;&lt;span style=&quot;font-family: &amp;#34;맑은 고딕&amp;#34;&quot;&gt;활용기술분야&lt;/span&gt;&lt;span style=&quot;font-family: &amp;#34;맑은 고딕&amp;#34;&quot;&gt;, &lt;/span&gt;&lt;span style=&quot;font-family: &amp;#34;맑은 고딕&amp;#34;&quot;&gt;희망투자단계&lt;/span&gt;&lt;span style=&quot;font-family: &amp;#34;맑은 고딕&amp;#34;&quot;&gt;, &lt;/span&gt;&lt;span style=&quot;font-family: &amp;#34;맑은 고딕&amp;#34;&quot;&gt;희망투자금액&lt;/span&gt;&lt;span style=&quot;font-family: &amp;#34;맑은 고딕&amp;#34;&quot;&gt;,&amp;nbsp;&lt;/span&gt;&lt;/p&gt;&lt;p style=&quot;line-height: normal ; margin: 0pt 0in ; text-indent: 0in ; direction: ltr ; unicode-bidi: embed&quot;&gt;&lt;span style=&quot;font-family: &amp;#34;맑은 고딕&amp;#34;&quot;&gt;IR/&lt;/span&gt;&lt;span style=&quot;font-family: &amp;#34;맑은 고딕&amp;#34;&quot;&gt;사업계획서,&lt;/span&gt;&lt;/p&gt;&lt;p style=&quot;line-height: normal ; margin: 0pt 0in ; text-indent: 0in ; direction: ltr ; unicode-bidi: embed&quot;&gt;&lt;span style=&quot;font-family: &amp;#34;맑은 고딕&amp;#34;&quot;&gt;투자정보(투자일자&lt;/span&gt;&lt;span style=&quot;font-family: &amp;#34;맑은 고딕&amp;#34;&quot;&gt;,&lt;/span&gt;&lt;span style=&quot;font-family: &amp;#34;맑은 고딕&amp;#34;&quot;&gt;투자단계&lt;/span&gt;&lt;span style=&quot;font-family: &amp;#34;맑은 고딕&amp;#34;&quot;&gt;,&lt;/span&gt;&lt;span style=&quot;font-family: &amp;#34;맑은 고딕&amp;#34;&quot;&gt;투자금액),&lt;/span&gt;&lt;/p&gt;&lt;p style=&quot;line-height: normal ; margin: 0pt 0in ; text-indent: 0in ; direction: ltr ; unicode-bidi: embed&quot;&gt;&lt;span style=&quot;font-family: &amp;#34;맑은 고딕&amp;#34;&quot;&gt;서비스정보(서비스명&lt;/span&gt;&lt;span style=&quot;font-family: &amp;#34;맑은 고딕&amp;#34;&quot;&gt;, &lt;/span&gt;&lt;span style=&quot;font-family: &amp;#34;맑은 고딕&amp;#34;&quot;&gt;서비스한줄소개&lt;/span&gt;&lt;span style=&quot;font-family: &amp;#34;맑은 고딕&amp;#34;&quot;&gt;, &lt;/span&gt;&lt;span style=&quot;font-family: &amp;#34;맑은 고딕&amp;#34;&quot;&gt;서비스소개이미지),&lt;/span&gt;&lt;span style=&quot;font-family: &amp;#34;맑은 고딕&amp;#34;&quot;&gt;&amp;nbsp;&lt;/span&gt;&lt;/p&gt;&lt;p style=&quot;line-height: normal ; margin: 0pt 0in ; text-indent: 0in ; direction: ltr ; unicode-bidi: embed&quot;&gt;&lt;span style=&quot;font-family: &amp;#34;맑은 고딕&amp;#34;&quot;&gt;IR&lt;/span&gt;&lt;span style=&quot;font-family: &amp;#34;맑은 고딕&amp;#34;&quot;&gt;자료요청거부 &lt;/span&gt;&lt;span style=&quot;font-family: &amp;#34;맑은 고딕&amp;#34;&quot;&gt;토글&lt;/span&gt;&lt;/p&gt;&lt;span style=&quot;font-family: &amp;#34;맑은 고딕&amp;#34;&quot;&gt;&lt;br&gt;&lt;br&gt;&lt;br&gt;&lt;/span&gt;&lt;span style=&quot;font-family: &amp;#34;맑은 고딕&amp;#34;&quot;&gt;&lt;br&gt;&lt;/span&gt;&lt;/font&gt;" style="text;html=1;resizable=0;autosize=1;align=left;verticalAlign=middle;points=[];fillColor=none;strokeColor=none;rounded=0;" parent="1" vertex="1">
          <mxGeometry x="497.89" y="80" width="280" height="150" as="geometry" />
        </mxCell>
        <mxCell id="Apj9eic0G-zYuKpP5c-M-1" value="IR요청" style="rounded=0;whiteSpace=wrap;html=1;" vertex="1" parent="1">
          <mxGeometry x="314" y="230" width="100" height="40" as="geometry" />
        </mxCell>
        <mxCell id="Apj9eic0G-zYuKpP5c-M-11" style="edgeStyle=orthogonalEdgeStyle;rounded=0;orthogonalLoop=1;jettySize=auto;html=1;entryX=0;entryY=0.5;entryDx=0;entryDy=0;" edge="1" parent="1" source="Apj9eic0G-zYuKpP5c-M-2" target="Apj9eic0G-zYuKpP5c-M-9">
          <mxGeometry relative="1" as="geometry" />
        </mxCell>
        <mxCell id="Apj9eic0G-zYuKpP5c-M-2" value="투자검토제안&lt;br&gt;&lt;font style=&quot;font-size: 9px&quot;&gt;(투자검토요청)&lt;/font&gt;" style="rounded=0;whiteSpace=wrap;html=1;" vertex="1" parent="1">
          <mxGeometry x="630" y="40" width="100" height="40" as="geometry" />
        </mxCell>
        <mxCell id="Apj9eic0G-zYuKpP5c-M-6" value="* ()는 상대방 상태값" style="text;html=1;resizable=0;autosize=1;align=center;verticalAlign=middle;points=[];fillColor=none;strokeColor=none;rounded=0;" vertex="1" parent="1">
          <mxGeometry x="25" y="10" width="120" height="20" as="geometry" />
        </mxCell>
        <mxCell id="Apj9eic0G-zYuKpP5c-M-19" style="edgeStyle=orthogonalEdgeStyle;rounded=0;orthogonalLoop=1;jettySize=auto;html=1;entryX=0;entryY=0.5;entryDx=0;entryDy=0;" edge="1" parent="1" source="Apj9eic0G-zYuKpP5c-M-7" target="Apj9eic0G-zYuKpP5c-M-18">
          <mxGeometry relative="1" as="geometry" />
        </mxCell>
        <mxCell id="Apj9eic0G-zYuKpP5c-M-7" value="&lt;font&gt;추가자료요청&lt;br&gt;&lt;/font&gt;&lt;font style=&quot;font-size: 9px&quot;&gt;(투자검토수락)&lt;/font&gt;" style="rounded=0;whiteSpace=wrap;html=1;" vertex="1" parent="1">
          <mxGeometry x="870" y="40" width="100" height="40" as="geometry" />
        </mxCell>
        <mxCell id="Apj9eic0G-zYuKpP5c-M-12" style="edgeStyle=orthogonalEdgeStyle;rounded=0;orthogonalLoop=1;jettySize=auto;html=1;entryX=0;entryY=0.5;entryDx=0;entryDy=0;" edge="1" parent="1" source="Apj9eic0G-zYuKpP5c-M-9" target="Apj9eic0G-zYuKpP5c-M-7">
          <mxGeometry relative="1" as="geometry" />
        </mxCell>
        <mxCell id="Apj9eic0G-zYuKpP5c-M-16" style="edgeStyle=orthogonalEdgeStyle;rounded=0;orthogonalLoop=1;jettySize=auto;html=1;entryX=0;entryY=0.5;entryDx=0;entryDy=0;" edge="1" parent="1" source="Apj9eic0G-zYuKpP5c-M-9" target="Apj9eic0G-zYuKpP5c-M-13">
          <mxGeometry relative="1" as="geometry">
            <Array as="points">
              <mxPoint x="803" y="130" />
            </Array>
          </mxGeometry>
        </mxCell>
        <mxCell id="Apj9eic0G-zYuKpP5c-M-9" value="투자검토&lt;br&gt;수락여부" style="rhombus;whiteSpace=wrap;html=1;rounded=0;fontSize=10;" vertex="1" parent="1">
          <mxGeometry x="767.89" y="25" width="70" height="70" as="geometry" />
        </mxCell>
        <mxCell id="Apj9eic0G-zYuKpP5c-M-13" value="투자검토거절&lt;br&gt;&lt;font style=&quot;font-size: 10px&quot;&gt;(투자검토거절)&lt;/font&gt;" style="rounded=0;whiteSpace=wrap;html=1;" vertex="1" parent="1">
          <mxGeometry x="870" y="110" width="100" height="40" as="geometry" />
        </mxCell>
        <mxCell id="Apj9eic0G-zYuKpP5c-M-14" value="YES" style="text;html=1;resizable=0;autosize=1;align=center;verticalAlign=middle;points=[];fillColor=none;strokeColor=none;rounded=0;fontSize=10;" vertex="1" parent="1">
          <mxGeometry x="830" y="30" width="40" height="20" as="geometry" />
        </mxCell>
        <mxCell id="Apj9eic0G-zYuKpP5c-M-15" value="NO" style="text;html=1;resizable=0;autosize=1;align=center;verticalAlign=middle;points=[];fillColor=none;strokeColor=none;rounded=0;fontSize=10;" vertex="1" parent="1">
          <mxGeometry x="832" y="110" width="30" height="20" as="geometry" />
        </mxCell>
        <mxCell id="Apj9eic0G-zYuKpP5c-M-26" style="edgeStyle=orthogonalEdgeStyle;rounded=0;orthogonalLoop=1;jettySize=auto;html=1;entryX=0;entryY=0.5;entryDx=0;entryDy=0;" edge="1" parent="1" source="Apj9eic0G-zYuKpP5c-M-17" target="Apj9eic0G-zYuKpP5c-M-25">
          <mxGeometry relative="1" as="geometry" />
        </mxCell>
        <mxCell id="Apj9eic0G-zYuKpP5c-M-17" value="&lt;font&gt;추가자료전달&lt;br&gt;&lt;/font&gt;&lt;font style=&quot;font-size: 9px&quot;&gt;(추가자료확인)&lt;/font&gt;" style="rounded=0;whiteSpace=wrap;html=1;" vertex="1" parent="1">
          <mxGeometry x="1120" y="40" width="100" height="40" as="geometry" />
        </mxCell>
        <mxCell id="Apj9eic0G-zYuKpP5c-M-21" style="edgeStyle=orthogonalEdgeStyle;rounded=0;orthogonalLoop=1;jettySize=auto;html=1;entryX=0;entryY=0.5;entryDx=0;entryDy=0;" edge="1" parent="1" source="Apj9eic0G-zYuKpP5c-M-18" target="Apj9eic0G-zYuKpP5c-M-17">
          <mxGeometry relative="1" as="geometry" />
        </mxCell>
        <mxCell id="Apj9eic0G-zYuKpP5c-M-22" style="edgeStyle=orthogonalEdgeStyle;rounded=0;orthogonalLoop=1;jettySize=auto;html=1;entryX=0;entryY=0.75;entryDx=0;entryDy=0;" edge="1" parent="1" source="Apj9eic0G-zYuKpP5c-M-18" target="Apj9eic0G-zYuKpP5c-M-20">
          <mxGeometry relative="1" as="geometry">
            <Array as="points">
              <mxPoint x="1045" y="140" />
            </Array>
          </mxGeometry>
        </mxCell>
        <mxCell id="Apj9eic0G-zYuKpP5c-M-18" value="추가자료 &lt;br&gt;수락여부" style="rhombus;whiteSpace=wrap;html=1;rounded=0;fontSize=10;" vertex="1" parent="1">
          <mxGeometry x="1010" y="25" width="70" height="70" as="geometry" />
        </mxCell>
        <mxCell id="Apj9eic0G-zYuKpP5c-M-20" value="추가자료거절&lt;br&gt;&lt;font style=&quot;font-size: 10px&quot;&gt;(추가자료거절)&lt;/font&gt;" style="rounded=0;whiteSpace=wrap;html=1;" vertex="1" parent="1">
          <mxGeometry x="1120" y="110" width="100" height="40" as="geometry" />
        </mxCell>
        <mxCell id="Apj9eic0G-zYuKpP5c-M-23" value="YES" style="text;html=1;resizable=0;autosize=1;align=center;verticalAlign=middle;points=[];fillColor=none;strokeColor=none;rounded=0;fontSize=10;" vertex="1" parent="1">
          <mxGeometry x="1070" y="30" width="40" height="20" as="geometry" />
        </mxCell>
        <mxCell id="Apj9eic0G-zYuKpP5c-M-24" value="NO" style="text;html=1;resizable=0;autosize=1;align=center;verticalAlign=middle;points=[];fillColor=none;strokeColor=none;rounded=0;fontSize=10;" vertex="1" parent="1">
          <mxGeometry x="1072" y="110" width="30" height="20" as="geometry" />
        </mxCell>
        <mxCell id="Apj9eic0G-zYuKpP5c-M-28" style="edgeStyle=orthogonalEdgeStyle;rounded=0;orthogonalLoop=1;jettySize=auto;html=1;entryX=0;entryY=0.5;entryDx=0;entryDy=0;" edge="1" parent="1" source="Apj9eic0G-zYuKpP5c-M-25" target="Apj9eic0G-zYuKpP5c-M-27">
          <mxGeometry relative="1" as="geometry" />
        </mxCell>
        <mxCell id="Apj9eic0G-zYuKpP5c-M-25" value="미팅요청&lt;br&gt;&lt;font style=&quot;font-size: 10px&quot;&gt;(미팅제안)&lt;/font&gt;" style="rounded=0;whiteSpace=wrap;html=1;" vertex="1" parent="1">
          <mxGeometry x="1270" y="40" width="100" height="40" as="geometry" />
        </mxCell>
        <mxCell id="Apj9eic0G-zYuKpP5c-M-31" style="edgeStyle=orthogonalEdgeStyle;rounded=0;orthogonalLoop=1;jettySize=auto;html=1;entryX=0;entryY=0.5;entryDx=0;entryDy=0;" edge="1" parent="1" source="Apj9eic0G-zYuKpP5c-M-27" target="Apj9eic0G-zYuKpP5c-M-29">
          <mxGeometry relative="1" as="geometry" />
        </mxCell>
        <mxCell id="Apj9eic0G-zYuKpP5c-M-41" style="edgeStyle=orthogonalEdgeStyle;rounded=0;orthogonalLoop=1;jettySize=auto;html=1;entryX=0;entryY=0.5;entryDx=0;entryDy=0;" edge="1" parent="1" source="Apj9eic0G-zYuKpP5c-M-27" target="Apj9eic0G-zYuKpP5c-M-40">
          <mxGeometry relative="1" as="geometry">
            <Array as="points">
              <mxPoint x="1445" y="155" />
            </Array>
          </mxGeometry>
        </mxCell>
        <mxCell id="Apj9eic0G-zYuKpP5c-M-27" value="미팅&lt;br&gt;수락여부" style="rhombus;whiteSpace=wrap;html=1;rounded=0;fontSize=10;" vertex="1" parent="1">
          <mxGeometry x="1410" y="25" width="70" height="70" as="geometry" />
        </mxCell>
        <mxCell id="Apj9eic0G-zYuKpP5c-M-50" style="edgeStyle=orthogonalEdgeStyle;rounded=0;orthogonalLoop=1;jettySize=auto;html=1;entryX=0;entryY=0.5;entryDx=0;entryDy=0;" edge="1" parent="1" source="Apj9eic0G-zYuKpP5c-M-29" target="Apj9eic0G-zYuKpP5c-M-49">
          <mxGeometry relative="1" as="geometry" />
        </mxCell>
        <mxCell id="Apj9eic0G-zYuKpP5c-M-29" value="&lt;font&gt;미팅요청수락&lt;br&gt;&lt;/font&gt;&lt;font style=&quot;font-size: 9px&quot;&gt;(미팅제안수락)&lt;/font&gt;" style="rounded=0;whiteSpace=wrap;html=1;" vertex="1" parent="1">
          <mxGeometry x="1520" y="40" width="100" height="40" as="geometry" />
        </mxCell>
        <mxCell id="Apj9eic0G-zYuKpP5c-M-30" value="미팅요청거절&lt;br&gt;&lt;font style=&quot;font-size: 10px&quot;&gt;(미팅제안거절)&lt;/font&gt;" style="rounded=0;whiteSpace=wrap;html=1;" vertex="1" parent="1">
          <mxGeometry x="1560" y="110" width="100" height="40" as="geometry" />
        </mxCell>
        <mxCell id="Apj9eic0G-zYuKpP5c-M-33" value="YES" style="text;html=1;resizable=0;autosize=1;align=center;verticalAlign=middle;points=[];fillColor=none;strokeColor=none;rounded=0;fontSize=10;" vertex="1" parent="1">
          <mxGeometry x="1480" y="30" width="40" height="20" as="geometry" />
        </mxCell>
        <mxCell id="Apj9eic0G-zYuKpP5c-M-34" value="NO" style="text;html=1;resizable=0;autosize=1;align=center;verticalAlign=middle;points=[];fillColor=none;strokeColor=none;rounded=0;fontSize=10;" vertex="1" parent="1">
          <mxGeometry x="1450" y="100" width="30" height="20" as="geometry" />
        </mxCell>
        <mxCell id="Apj9eic0G-zYuKpP5c-M-47" style="edgeStyle=orthogonalEdgeStyle;rounded=0;orthogonalLoop=1;jettySize=auto;html=1;" edge="1" parent="1" source="Apj9eic0G-zYuKpP5c-M-39" target="Apj9eic0G-zYuKpP5c-M-25">
          <mxGeometry relative="1" as="geometry">
            <Array as="points">
              <mxPoint x="1320" y="210" />
            </Array>
          </mxGeometry>
        </mxCell>
        <mxCell id="Apj9eic0G-zYuKpP5c-M-39" value="미팅재요청&lt;br&gt;&lt;font style=&quot;font-size: 10px&quot;&gt;(미팅재요청)&lt;/font&gt;" style="rounded=0;whiteSpace=wrap;html=1;" vertex="1" parent="1">
          <mxGeometry x="1560" y="200" width="100" height="40" as="geometry" />
        </mxCell>
        <mxCell id="Apj9eic0G-zYuKpP5c-M-46" style="edgeStyle=orthogonalEdgeStyle;rounded=0;orthogonalLoop=1;jettySize=auto;html=1;entryX=0;entryY=0.25;entryDx=0;entryDy=0;" edge="1" parent="1" source="Apj9eic0G-zYuKpP5c-M-40" target="Apj9eic0G-zYuKpP5c-M-30">
          <mxGeometry relative="1" as="geometry">
            <Array as="points">
              <mxPoint x="1540" y="120" />
              <mxPoint x="1540" y="120" />
            </Array>
          </mxGeometry>
        </mxCell>
        <mxCell id="Apj9eic0G-zYuKpP5c-M-48" style="edgeStyle=orthogonalEdgeStyle;rounded=0;orthogonalLoop=1;jettySize=auto;html=1;entryX=0.5;entryY=0;entryDx=0;entryDy=0;" edge="1" parent="1" source="Apj9eic0G-zYuKpP5c-M-40" target="Apj9eic0G-zYuKpP5c-M-39">
          <mxGeometry relative="1" as="geometry">
            <Array as="points">
              <mxPoint x="1610" y="190" />
            </Array>
          </mxGeometry>
        </mxCell>
        <mxCell id="Apj9eic0G-zYuKpP5c-M-40" value="재요청여부" style="rhombus;whiteSpace=wrap;html=1;rounded=0;fontSize=10;" vertex="1" parent="1">
          <mxGeometry x="1460" y="120" width="70" height="70" as="geometry" />
        </mxCell>
        <mxCell id="Apj9eic0G-zYuKpP5c-M-42" value="YES" style="text;html=1;resizable=0;autosize=1;align=center;verticalAlign=middle;points=[];fillColor=none;strokeColor=none;rounded=0;fontSize=10;" vertex="1" parent="1">
          <mxGeometry x="1530" y="160" width="40" height="20" as="geometry" />
        </mxCell>
        <mxCell id="Apj9eic0G-zYuKpP5c-M-43" value="NO" style="text;html=1;resizable=0;autosize=1;align=center;verticalAlign=middle;points=[];fillColor=none;strokeColor=none;rounded=0;fontSize=10;" vertex="1" parent="1">
          <mxGeometry x="1520" y="100" width="30" height="20" as="geometry" />
        </mxCell>
        <mxCell id="Apj9eic0G-zYuKpP5c-M-53" style="edgeStyle=orthogonalEdgeStyle;rounded=0;orthogonalLoop=1;jettySize=auto;html=1;entryX=0;entryY=0.5;entryDx=0;entryDy=0;" edge="1" parent="1" source="Apj9eic0G-zYuKpP5c-M-49" target="Apj9eic0G-zYuKpP5c-M-51">
          <mxGeometry relative="1" as="geometry" />
        </mxCell>
        <mxCell id="Apj9eic0G-zYuKpP5c-M-54" style="edgeStyle=orthogonalEdgeStyle;rounded=0;orthogonalLoop=1;jettySize=auto;html=1;entryX=0;entryY=0.5;entryDx=0;entryDy=0;" edge="1" parent="1" source="Apj9eic0G-zYuKpP5c-M-49" target="Apj9eic0G-zYuKpP5c-M-52">
          <mxGeometry relative="1" as="geometry">
            <Array as="points">
              <mxPoint x="1705" y="130" />
            </Array>
          </mxGeometry>
        </mxCell>
        <mxCell id="Apj9eic0G-zYuKpP5c-M-49" value="투자확정여부" style="rhombus;whiteSpace=wrap;html=1;rounded=0;fontSize=10;" vertex="1" parent="1">
          <mxGeometry x="1670" y="25" width="70" height="70" as="geometry" />
        </mxCell>
        <mxCell id="Apj9eic0G-zYuKpP5c-M-51" value="투자확정&lt;br&gt;&lt;font style=&quot;font-size: 10px&quot;&gt;(투자확정)&lt;/font&gt;" style="rounded=0;whiteSpace=wrap;html=1;" vertex="1" parent="1">
          <mxGeometry x="1790" y="40" width="100" height="40" as="geometry" />
        </mxCell>
        <mxCell id="Apj9eic0G-zYuKpP5c-M-52" value="투자거절&lt;br&gt;&lt;font style=&quot;font-size: 10px&quot;&gt;(투자거절)&lt;/font&gt;" style="rounded=0;whiteSpace=wrap;html=1;" vertex="1" parent="1">
          <mxGeometry x="1790" y="110" width="100" height="40" as="geometry" />
        </mxCell>
        <mxCell id="Apj9eic0G-zYuKpP5c-M-55" value="YES" style="text;html=1;resizable=0;autosize=1;align=center;verticalAlign=middle;points=[];fillColor=none;strokeColor=none;rounded=0;fontSize=10;" vertex="1" parent="1">
          <mxGeometry x="1750" y="30" width="40" height="20" as="geometry" />
        </mxCell>
        <mxCell id="Apj9eic0G-zYuKpP5c-M-56" value="NO" style="text;html=1;resizable=0;autosize=1;align=center;verticalAlign=middle;points=[];fillColor=none;strokeColor=none;rounded=0;fontSize=10;" vertex="1" parent="1">
          <mxGeometry x="1752" y="110" width="30" height="20" as="geometry" />
        </mxCell>
      </root>
    </mxGraphModel>
  </diagram>
</mxfile>
